<svg width="24" height="24" viewBox="0 0 24 24" fill="none" xmlns="http://www.w3.org/2000/svg">
<path fill-rule="evenodd" clip-rule="evenodd" d="M7.2009 15.8291C7.07227 15.9577 7 16.1322 7 16.3141C7 16.496 7.07227 16.6705 7.2009 16.7991C7.32953 16.9277 7.504 17 7.68591 17C7.86783 17 8.04229 16.9277 8.17092 16.7991L11.9996 12.969L15.829 16.7984C15.9583 16.9233 16.1314 16.9924 16.3112 16.9908C16.4909 16.9893 16.6629 16.9172 16.79 16.7901C16.9171 16.663 16.9892 16.491 16.9907 16.3113C16.9923 16.1315 16.9232 15.9584 16.7983 15.8291L12.9689 11.9997L16.7983 8.17034C16.9269 8.0417 16.999 7.86728 16.999 7.68543C16.9989 7.50358 16.9266 7.3292 16.798 7.20066C16.6693 7.07211 16.4949 6.99994 16.3131 7C16.1312 7.00006 15.9568 7.07237 15.8283 7.201L11.9996 11.0304L8.17024 7.201C8.04095 7.07612 7.86778 7.00703 7.68804 7.00859C7.50829 7.01015 7.33635 7.08225 7.20925 7.20935C7.08215 7.33645 7.01005 7.50839 7.00849 7.68814C7.00693 7.86788 7.07602 8.04105 7.2009 8.17034L11.0303 11.9997L7.2009 15.8291Z" fill="#F80F0F"/>
</svg>
