<svg width="24" height="24" viewBox="0 0 24 24" fill="none" xmlns="http://www.w3.org/2000/svg">
<path fill-rule="evenodd" clip-rule="evenodd" d="M7.90348 0H16.0306L23.2057 7.17516V20.9563C23.2057 22.6311 21.8368 24 20.162 24H7.90348C6.22868 24 4.85974 22.6311 4.85974 20.9563V3.04373C4.85974 1.36889 6.22863 0 7.90348 0Z" fill="#00733B"/>
<path fill-rule="evenodd" clip-rule="evenodd" d="M16.0306 0L23.2058 7.17516H16.8043C16.3776 7.17516 16.0306 6.82814 16.0306 6.40153V0ZM1.46221 10.2189H17.9921C18.3597 10.2189 18.6601 10.5193 18.6601 10.8869V16.951C18.6601 17.3186 18.3598 17.6204 17.9921 17.6204H1.46221C1.09461 17.6204 0.794189 17.3186 0.794189 16.951V10.8869C0.794189 10.5193 1.09456 10.2189 1.46221 10.2189Z" fill="#04AA61"/>
<path d="M4.844 13.0912V14.7481C4.844 15.2219 5.2295 15.6074 5.70336 15.6074C6.17717 15.6074 6.56267 15.2219 6.56267 14.7481C6.56267 14.6972 6.57269 14.6468 6.59217 14.5998C6.61164 14.5528 6.64018 14.5101 6.67616 14.4741C6.71214 14.4381 6.75485 14.4096 6.80186 14.3901C6.84887 14.3707 6.89926 14.3606 6.95014 14.3606C7.00102 14.3606 7.05141 14.3707 7.09842 14.3901C7.14543 14.4096 7.18814 14.4381 7.22412 14.4741C7.2601 14.5101 7.28864 14.5528 7.30812 14.5998C7.32759 14.6468 7.33761 14.6972 7.33761 14.7481C7.33761 15.6493 6.60449 16.3824 5.70331 16.3824C4.80214 16.3824 4.06897 15.6492 4.06897 14.7481V13.0912C4.06897 12.19 4.80214 11.4569 5.70331 11.4569C6.60449 11.4569 7.33761 12.19 7.33761 13.0912C7.33761 13.142 7.32759 13.1924 7.30812 13.2394C7.28864 13.2865 7.2601 13.3292 7.22412 13.3651C7.18814 13.4011 7.14543 13.4297 7.09842 13.4491C7.05141 13.4686 7.00102 13.4786 6.95014 13.4786C6.89926 13.4786 6.84887 13.4686 6.80186 13.4491C6.75485 13.4297 6.71214 13.4011 6.67616 13.3651C6.64018 13.3292 6.61164 13.2865 6.59217 13.2394C6.57269 13.1924 6.56267 13.142 6.56267 13.0912C6.56267 12.6174 6.17717 12.2319 5.70336 12.2319C5.2295 12.2319 4.844 12.6174 4.844 13.0912ZM9.43156 12.2319H10.0488C10.298 12.2319 10.5008 12.4346 10.5008 12.6838C10.5008 12.7866 10.5416 12.8851 10.6143 12.9578C10.6869 13.0305 10.7855 13.0713 10.8883 13.0713C10.991 13.0713 11.0896 13.0305 11.1622 12.9578C11.2349 12.8851 11.2757 12.7866 11.2757 12.6838C11.2757 12.0073 10.7253 11.4569 10.0488 11.4569H9.43152C8.64533 11.4569 8.00567 12.0959 8.00567 12.8813C8.00567 13.5765 8.36286 13.9156 8.66249 14.0777C9.04269 14.2833 9.52222 14.3071 9.84983 14.3071C10.2087 14.3071 10.5007 14.5985 10.5007 14.9566C10.5007 15.3154 10.2087 15.6074 9.84983 15.6074H9.23258C8.98339 15.6074 8.78061 15.4047 8.78061 15.1554C8.78061 15.0527 8.73979 14.9541 8.66712 14.8815C8.59446 14.8088 8.4959 14.768 8.39314 14.768C8.29038 14.768 8.19182 14.8088 8.11916 14.8815C8.0465 14.9541 8.00567 15.0527 8.00567 15.1554C8.00567 15.832 8.55608 16.3824 9.23263 16.3824H9.84988C10.6361 16.3824 11.2757 15.7427 11.2757 14.9566C11.2757 14.1711 10.6361 13.5321 9.84988 13.5321C8.86114 13.5321 8.7807 13.2373 8.7807 12.8813C8.7807 12.5232 9.07264 12.2319 9.43156 12.2319ZM15.1199 11.4766C15.0224 11.4442 14.916 11.4519 14.8241 11.4979C14.7322 11.544 14.6624 11.6247 14.63 11.7222L13.6192 14.7655L12.6085 11.7222C12.5759 11.6248 12.5061 11.5443 12.4143 11.4984C12.3225 11.4524 12.2162 11.4448 12.1188 11.4772C12.0213 11.5095 11.9407 11.5792 11.8946 11.671C11.8485 11.7627 11.8407 11.869 11.873 11.9665L13.2515 16.1171C13.2772 16.1943 13.3265 16.2615 13.3925 16.3091C13.4586 16.3567 13.5379 16.3823 13.6192 16.3823C13.7006 16.3823 13.7799 16.3567 13.8459 16.3091C13.9119 16.2615 13.9613 16.1943 13.987 16.1171L15.3655 11.9665C15.3815 11.9182 15.3879 11.8672 15.3842 11.8165C15.3806 11.7657 15.367 11.7162 15.3441 11.6707C15.3213 11.6252 15.2898 11.5846 15.2513 11.5513C15.2128 11.518 15.1682 11.4926 15.1199 11.4766Z" fill="white"/>
</svg>
