<svg width="100" height="100" viewBox="0 0 100 100" fill="none" xmlns="http://www.w3.org/2000/svg">
<g opacity="0.7">
<path d="M50 5C74.8535 5 95 25.1465 95 50C95 74.8535 74.8535 95 50 95C25.1465 95 5 74.8535 5 50C5 25.1465 25.1465 5 50 5ZM50 11.2775C39.7302 11.2775 29.8809 15.3572 22.6191 22.6191C15.3572 29.8809 11.2775 39.7302 11.2775 50C11.2775 60.2698 15.3572 70.1191 22.6191 77.3809C29.8809 84.6428 39.7302 88.7225 50 88.7225C60.2698 88.7225 70.1191 84.6428 77.3809 77.3809C84.6428 70.1191 88.7225 60.2698 88.7225 50C88.7225 39.7302 84.6428 29.8809 77.3809 22.6191C70.1191 15.3572 60.2698 11.2775 50 11.2775Z" fill="#7700C7"/>
<path d="M27 50L42.5 65.5L73 35" stroke="#7700C7" stroke-width="7" stroke-linecap="round"/>
</g>
</svg>
