<svg width="48" height="43" viewBox="0 0 48 43" fill="none" xmlns="http://www.w3.org/2000/svg">
<path d="M25.1294 10.436L25.2227 10.4641L25.2282 10.4577C25.548 10.5028 25.8582 10.3055 25.9516 9.98727C26.7638 7.23065 29.3225 5.30605 32.1713 5.30605C32.5375 5.30605 32.8319 5.00648 32.8319 4.64028C32.8319 4.27407 32.5375 3.97451 32.1713 3.97451C28.6226 3.97451 25.642 6.36089 24.6852 9.60855C24.5815 9.95969 24.7791 10.3305 25.1294 10.436Z" fill="#7700C7" stroke="#F9FFF9" stroke-width="0.3"/>
<path d="M39.3194 29.9128H36.2556C35.9736 29.9128 35.7449 29.6818 35.7449 29.3971C35.7449 29.1123 35.9736 28.8813 36.2556 28.8813H39.3194C43.5427 28.8813 46.9789 25.4105 46.9789 21.1449C46.9789 16.8792 43.5427 13.4084 39.3194 13.4084H39.2457C39.0976 13.4084 38.9568 13.3436 38.8598 13.2305C38.7628 13.1174 38.719 12.9675 38.7402 12.8194C38.7858 12.4981 38.8087 12.1754 38.8087 11.8612C38.8087 8.16426 35.8306 5.15621 32.1704 5.15621C30.7465 5.15621 29.3885 5.60566 28.2432 6.45629C27.9915 6.64307 27.6341 6.56018 27.4886 6.28056C24.2449 0.0420792 15.773 -0.795686 11.3807 4.63125C9.53036 6.91754 8.80335 9.89164 9.38591 12.7903C9.45011 13.1104 9.20755 13.4088 8.88548 13.4088H8.68087C4.45757 13.4088 1.02132 16.8796 1.02132 21.1453C1.02132 25.4109 4.45757 28.8817 8.68087 28.8817H11.7446C12.0266 28.8817 12.2553 29.1127 12.2553 29.3974C12.2553 29.6822 12.0266 29.9132 11.7446 29.9132H8.68087C3.89434 29.9132 0 25.9798 0 21.1452C0 16.4463 3.67874 12.5987 8.28001 12.3865C7.84779 9.37917 8.6743 6.34575 10.5899 3.97845C15.2925 -1.83233 24.3046 -1.18102 28.1143 5.29843C29.3296 4.52883 30.7203 4.1251 32.1702 4.1251C36.6048 4.1251 40.1187 7.93734 39.8112 12.3913C44.3701 12.6495 48 16.4768 48 21.1448C48 25.9798 44.1057 29.9128 39.3191 29.9128L39.3194 29.9128Z" fill="#7700C7"/>
<path d="M11.0155 29.1056C11.0155 36.297 16.8082 42.1498 23.9316 42.1498C31.0551 42.1498 36.8477 36.2969 36.8477 29.1056C36.8477 21.9143 31.0551 16.0614 23.9316 16.0614C16.8081 16.0614 11.0155 21.9144 11.0155 29.1056ZM12.337 29.1056C12.337 22.6462 17.5399 17.3932 23.9316 17.3932C30.3232 17.3932 35.5261 22.6461 35.5261 29.1056C35.5261 35.565 30.3232 40.8181 23.9316 40.8181C17.54 40.8181 12.337 35.5651 12.337 29.1056Z" fill="#7700C7" stroke="#F9FFF9" stroke-width="0.3"/>
<path d="M23.6405 34.2963C23.6405 34.5862 23.8737 34.8239 24.1644 34.8239C24.455 34.8239 24.6882 34.5865 24.6882 34.2963V24.4787C24.6882 24.1888 24.455 23.9511 24.1644 23.9511C23.8737 23.9511 23.6405 24.1888 23.6405 24.4787V34.2963Z" fill="#7700C7" stroke="#7700C7" stroke-width="0.3"/>
<path d="M24.1649 25.2264L26.7847 27.8725C26.8868 27.9756 27.0214 28.0276 27.1557 28.0276L24.1649 25.2264ZM24.1649 25.2264L21.5453 27.8724L21.5452 27.8725L24.1649 25.2264ZM23.794 24.1067C23.9985 23.8998 24.3312 23.8999 24.5359 24.1067L27.5266 27.1274C27.7305 27.3334 27.7305 27.6665 27.5267 27.8725M23.794 24.1067L27.1557 28.0276C27.2896 28.0276 27.4244 27.9761 27.5267 27.8725M23.794 24.1067C23.7939 24.1067 23.7939 24.1067 23.7939 24.1068L23.794 24.1067ZM27.5267 27.8725C27.5267 27.8724 27.5268 27.8724 27.5268 27.8723L27.42 27.767L27.5266 27.8725C27.5266 27.8725 27.5266 27.8725 27.5267 27.8725Z" fill="#7700C7" stroke="#7700C7" stroke-width="0.3"/>
</svg>
